<?xml version="1.0" encoding="utf-8"?>
<!-- Generator: Adobe Illustrator 23.0.6, SVG Export Plug-In . SVG Version: 6.00 Build 0)  -->
<svg version="1.1" id="Layer_1" xmlns="http://www.w3.org/2000/svg" xmlns:xlink="http://www.w3.org/1999/xlink" x="0px" y="0px"
	 viewBox="0 0 40 35" style="enable-background:new 0 0 40 35;" xml:space="preserve">
<style type="text/css">
	.st0{fill:none;}
	.st1{fill:#FC595C;}
</style>
<path class="st0" d="M21.81,10.87l0.54-0.92l0.42,0.97l-0.55,0.91c1.58,2.61,3.53,6.18,3.53,7.99c0,3.05-2.47,5.52-5.52,5.52
	c-3.05,0-5.52-2.47-5.52-5.52c0-1.81,1.95-5.4,3.54-8.01l-2.1-5.74L3.71,32.84h6.59l2.06-5.16c0.21-0.52,0.7-0.85,1.26-0.85h13.09
	c0.55,0,1.04,0.33,1.25,0.83l2.19,5.19h6.61L24.28,5.72L21.81,10.87z"/>
<path class="st0" d="M20.05,13.89l0.14-0.24c-0.46,0.71-2.67,4.21-2.67,5.57c0,1.83,1.23,3.52,2.76,3.52c1.52,0,2.76-1.6,2.76-3.52
	c0-1.12-1.5-3.69-2.29-4.96l-0.23,0.37L20.05,13.89z"/>
<path class="st1" d="M39.88,32.63L25.31,0.96c-0.22-0.48-0.7-0.79-1.22-0.79c0,0-0.01,0-0.01,0c-0.52,0-1,0.3-1.22,0.77L19.7,7.52
	l-2.37-6.46c-0.19-0.52-0.67-0.87-1.22-0.89c-0.55-0.02-1.06,0.29-1.29,0.78L0.13,32.62c-0.19,0.42-0.16,0.91,0.09,1.3
	c0.25,0.39,0.68,0.63,1.14,0.63h9.63c0.55,0,1.05-0.34,1.26-0.85l2.06-5.16h11.27l2.19,5.19c0.21,0.5,0.7,0.83,1.25,0.83h9.62
	c0.46,0,0.89-0.24,1.14-0.62C40.04,33.54,40.07,33.05,39.88,32.63z M29.92,31.84l-2.19-5.19c-0.21-0.5-0.7-0.83-1.25-0.83H13.39
	c-0.55,0-1.05,0.34-1.26,0.85l-2.06,5.16H3.48L15.91,5.07l2.1,5.74c-1.58,2.61-3.54,6.19-3.54,8.01c0,3.05,2.47,5.52,5.52,5.52
	c3.05,0,5.52-2.47,5.52-5.52c0-1.81-1.95-5.39-3.53-7.99l-1.48,2.44c0.79,1.27,2.29,3.84,2.29,4.96c0,1.92-1.23,3.52-2.76,3.52
	c-1.52,0-2.76-1.69-2.76-3.52c0-1.36,2.21-4.86,2.67-5.57l1.62-2.78l2.47-5.15l12.48,27.12H29.92z"/>
</svg>
